<?xml version="1.0" ?><svg data-name="Layer 1" id="Layer_1" viewBox="0 0 500 500" xmlns="http://www.w3.org/2000/svg"><defs><style>.cls-1{fill:#ee3734;}.cls-2{fill:#9b1c26;}.cls-3{fill:#f8e6c5;}.cls-4{fill:none;stroke:#000;stroke-linecap:round;stroke-linejoin:round;stroke-width:20px;}.cls-5{opacity:0.15;}.cls-6{fill:#fff;}</style></defs><title/><path class="cls-1" d="M350.82,270.93H96.64c55.11-44.17-28.06-86.39-28.06-86.39H350.82a43,43,0,0,1,24.82,7.88V44.48a34.16,34.16,0,0,0-34.17-34.16H63.23A34.16,34.16,0,0,0,29.06,44.48v411a34.16,34.16,0,0,0,34.17,34.16H341.47a34.16,34.16,0,0,0,34.17-34.16V263.05A43,43,0,0,1,350.82,270.93Z"/><rect class="cls-2" height="139.19" width="267.55" x="68.58" y="45.35"/><path class="cls-1" d="M96.64,270.93c55.11-44.17-28.06-86.39-28.06-86.39V454.65H336.13V270.93Z"/><path class="cls-3" d="M161.22,176.51s-11.09-62-40.32-94.42c-29.24,32.41-40.33,94.42-40.33,94.42"/><line class="cls-4" x1="120.9" x2="120.9" y1="136.15" y2="145.34"/><path class="cls-3" d="M243.32,176.51s-11.09-62-40.33-94.42c-29.24,32.41-40.33,94.42-40.33,94.42"/><line class="cls-4" x1="202.99" x2="202.99" y1="136.15" y2="145.34"/><path class="cls-3" d="M324,176.51s-11.09-62-40.32-94.42c-29.24,32.41-40.33,94.42-40.33,94.42"/><path class="cls-5" d="M375.64,455.52V263.05a43,43,0,0,1-24.82,7.88H283.65V489.68h57.82A34.16,34.16,0,0,0,375.64,455.52Z"/><path class="cls-5" d="M341.47,10.32H283.65V184.54h67.17a43,43,0,0,1,24.82,7.88V44.48A34.16,34.16,0,0,0,341.47,10.32Z"/><line class="cls-4" x1="283.65" x2="283.65" y1="136.15" y2="145.34"/><path class="cls-6" d="M68.58,184.54s83.17,42.22,28.06,86.39H350.82A43.19,43.19,0,0,0,394,227.74h0a43.2,43.2,0,0,0-43.19-43.2Z"/><path class="cls-4" d="M394,227.74h29.85v21.41a23.53,23.53,0,0,0,23.54,23.53h0a23.53,23.53,0,0,0,23.54-23.53V194.3a23.54,23.54,0,0,0-23.54-23.54h0a23.54,23.54,0,0,0-23.54,23.54v2.61"/><path class="cls-5" d="M96.64,270.93H350.82A43.19,43.19,0,0,0,394,227.74H113.46C118.18,240.82,115.57,255.76,96.64,270.93Z"/><path class="cls-4" d="M161.22,176.51s-11.09-62-40.32-94.42c-29.24,32.41-40.33,94.42-40.33,94.42"/><path class="cls-4" d="M243.32,176.51s-11.09-62-40.33-94.42c-29.24,32.41-40.33,94.42-40.33,94.42"/><path class="cls-4" d="M324,176.51s-11.09-62-40.32-94.42c-29.24,32.41-40.33,94.42-40.33,94.42"/><rect class="cls-4" height="139.19" width="267.55" x="68.58" y="45.35"/><path class="cls-4" d="M96.64,270.93c55.11-44.17-28.06-86.39-28.06-86.39V454.65H336.13V270.93Z"/><path class="cls-4" d="M350.82,270.93H96.64c55.11-44.17-28.06-86.39-28.06-86.39H350.82a43,43,0,0,1,24.82,7.88V44.48a34.16,34.16,0,0,0-34.17-34.16H63.23A34.16,34.16,0,0,0,29.06,44.48v411a34.16,34.16,0,0,0,34.17,34.16H341.47a34.16,34.16,0,0,0,34.17-34.16V263.05A43,43,0,0,1,350.82,270.93Z"/><path class="cls-4" d="M68.58,184.54s83.17,42.22,28.06,86.39H350.82A43.19,43.19,0,0,0,394,227.74h0a43.2,43.2,0,0,0-43.19-43.2Z"/></svg>